<svg version="1.1" id="Layer_1" xmlns="http://www.w3.org/2000/svg" xmlns:xlink="http://www.w3.org/1999/xlink" x="0px" y="0px"
	 width="100%" viewBox="0 0 279 258" enable-background="new 0 0 279 258" xml:space="preserve">
<path fill="#FEFEFE" opacity="1.000000" stroke="none" 
	d="
M280.000000,92.000000 
	C280.000000,148.000000 280.000000,203.500000 280.000000,259.000000 
	C187.000000,259.000000 94.000000,259.000000 1.000000,259.000000 
	C1.000000,173.000000 1.000000,87.000000 1.000000,1.000000 
	C94.000000,1.000000 187.000000,1.000000 280.000000,1.000000 
	C280.000000,31.166666 280.000000,61.333332 280.000000,92.000000 
M234.080582,169.073196 
	C234.080582,169.073196 234.195587,169.040390 234.534332,168.863220 
	C234.749222,168.711105 234.906509,168.513184 235.433609,167.818710 
	C235.741104,167.287811 236.048584,166.756927 236.717285,166.023590 
	C236.942108,165.851364 237.109177,165.634613 237.745010,165.153748 
	C237.972092,164.855881 238.199158,164.558029 238.778900,164.047256 
	C238.994995,163.865250 239.147873,163.640289 239.720016,163.133041 
	C239.889435,162.826965 240.058868,162.520889 240.271179,162.175095 
	C240.271179,162.175095 240.265564,162.233398 240.892670,162.037338 
	C241.922394,160.357758 242.952133,158.678177 244.168320,156.690475 
	C244.168320,156.690475 244.228806,156.335464 244.696747,156.218933 
	C244.696747,156.218933 245.151520,156.058487 245.706940,155.962265 
	C245.819397,155.311981 245.931839,154.661697 246.068405,153.429749 
	C246.323639,152.923279 246.578873,152.416809 247.514343,151.893570 
	C247.665161,150.925842 247.815994,149.958099 248.019653,148.273300 
	C248.086014,147.560257 248.152390,146.847198 248.085403,146.153580 
	C248.085403,146.153580 248.210617,146.203384 248.648270,146.153732 
	C248.648270,146.153732 249.070221,146.027359 249.785355,145.879272 
	C250.156693,144.560867 250.528046,143.242462 250.892044,141.904175 
	C250.892044,141.904175 250.873077,141.894196 251.564346,141.884659 
	C251.641266,140.904922 251.718185,139.925186 251.902496,138.227814 
	C251.992722,137.510696 252.082947,136.793594 252.462051,135.972626 
	C252.462051,135.972626 252.763779,135.916061 253.458282,135.698685 
	C256.094971,130.696014 258.731628,125.693336 261.631714,120.190933 
	C261.793457,119.158173 262.183044,117.342628 262.302155,115.509506 
	C262.338806,114.945267 261.636688,114.333023 261.326538,113.298210 
	C261.326538,113.298210 261.609344,112.951065 262.357147,112.745712 
	C266.752045,105.767464 269.426453,98.491119 268.135437,89.923798 
	C267.520721,85.844490 265.945953,83.643127 261.559845,82.809593 
	C261.277374,82.618591 261.084229,82.360687 260.925232,81.297447 
	C259.213531,77.397270 256.381866,77.270721 252.267853,79.055428 
	C251.521317,78.975021 250.774796,78.894608 249.834045,78.079971 
	C248.022491,77.827461 246.213425,77.555222 244.398926,77.326012 
	C238.099213,76.530228 231.797592,75.749382 225.340683,74.181358 
	C225.434631,73.131615 225.528580,72.081879 226.218491,70.773735 
	C225.830276,68.518250 225.442047,66.262764 224.751053,63.365807 
	C224.417908,61.767399 224.084778,60.168991 223.782776,57.953747 
	C223.536377,57.640793 223.289978,57.327839 222.617340,56.519627 
	C222.331665,55.704018 222.045990,54.888409 222.318741,53.746754 
	C221.518036,52.844845 220.717331,51.942940 219.439560,50.828449 
	C219.304245,50.519588 219.168930,50.210728 219.022888,49.180355 
	C217.847488,47.536850 216.867661,45.679329 215.408691,44.346138 
	C214.745377,43.740021 213.133789,44.171650 211.311417,44.049324 
	C210.540451,43.680027 209.769470,43.310726 208.845871,42.211651 
	C205.528717,41.143345 202.267914,39.757793 198.868256,39.153996 
	C197.390671,38.891567 195.627670,40.236240 193.173874,41.045502 
	C191.773270,41.109947 190.372650,41.174393 188.971313,40.423653 
	C188.698120,37.269825 186.505783,37.534107 184.762772,38.559921 
	C182.817688,39.704674 181.280289,41.542141 178.668274,43.881691 
	C181.704712,43.881691 183.870987,43.881691 186.787170,43.946682 
	C187.527679,44.000839 188.268204,44.054996 189.167816,44.417263 
	C189.439529,44.348000 189.711258,44.278736 190.618408,44.150299 
	C191.811951,44.583096 193.005478,45.015888 194.168167,46.274036 
	C195.530975,46.756706 196.893784,47.239376 198.224991,47.724411 
	C198.224991,47.724411 198.272110,47.703342 198.156204,48.441536 
	C200.093155,50.294575 202.030106,52.147614 204.527222,54.494827 
	C208.250870,62.375660 207.868530,70.499229 206.442886,78.609016 
	C205.635544,78.790695 205.311127,78.927429 204.986633,78.927658 
	C166.997894,78.954163 129.009079,78.939354 91.020615,79.049103 
	C88.109802,79.057510 87.434578,77.612770 86.834671,75.295708 
	C85.042435,68.373329 83.251984,61.441689 81.139427,54.613102 
	C77.948654,44.299274 71.545456,36.771145 61.044460,33.391243 
	C52.339165,30.589314 43.533199,28.098848 34.762413,25.502205 
	C29.656565,23.990591 26.047653,25.437067 24.969124,29.354342 
	C23.797920,33.608212 25.717245,36.616077 30.764503,38.168644 
	C38.392399,40.515030 45.962070,43.131638 53.712887,44.976208 
	C62.607025,47.092869 67.147385,52.776096 69.364647,61.186497 
	C76.570770,88.520462 83.701447,115.877037 91.260384,143.114120 
	C95.072327,156.849655 99.744766,170.346359 103.971588,184.792313 
	C102.798698,185.539703 101.654068,186.871719 100.447861,186.930023 
	C95.983887,187.145828 91.499580,186.941238 86.317123,186.844421 
	C73.589455,181.897781 69.899612,170.804016 67.348366,158.799149 
	C63.296967,171.688889 61.857750,184.538498 66.577171,197.403488 
	C69.650543,205.781326 75.687584,211.375275 84.483681,213.100998 
	C98.241516,215.800186 111.255219,212.824524 124.292145,207.209610 
	C124.143578,208.380066 124.426620,209.934769 123.779633,210.661484 
	C117.382172,217.847336 122.903229,231.437088 130.504578,234.835815 
	C131.673630,235.358521 133.488953,234.435806 135.748749,234.082428 
	C136.494949,234.125656 137.241135,234.168869 138.191498,234.503159 
	C138.465881,234.389038 138.740250,234.274918 139.518280,234.017838 
	C139.692810,234.018829 139.867325,234.019836 140.782364,234.075653 
	C141.832718,233.657532 142.883057,233.239410 144.181503,232.418137 
	C144.405182,232.171936 144.682724,232.034698 145.753433,232.021667 
	C149.900040,230.438156 152.565292,227.946304 151.210068,222.366913 
	C151.283203,221.934586 151.356323,221.502274 152.086746,220.803070 
	C153.437622,216.752136 153.871582,213.006744 148.355560,210.800812 
	C147.900497,210.209335 147.445435,209.617859 146.787262,208.533218 
	C146.479919,208.375748 146.172577,208.218277 145.312622,207.964676 
	C144.874146,207.641129 144.435669,207.317581 143.871964,206.246323 
	C139.238739,205.377502 134.605515,204.508682 130.525742,203.136642 
	C133.771286,201.245789 137.016830,199.354935 141.016327,197.716980 
	C141.638809,197.095352 142.261307,196.473740 142.991516,195.983368 
	C142.991516,195.983368 142.863190,195.872208 143.757889,195.962646 
	C146.718048,196.115097 149.678192,196.267563 153.463928,196.229523 
	C157.043945,196.266373 160.623962,196.303223 164.075760,197.289001 
	C165.290924,198.192123 166.496048,199.864700 167.722824,199.880753 
	C181.850601,200.065399 195.982361,199.923325 210.111282,200.057526 
	C213.240616,200.087250 214.370789,198.931030 214.822021,195.813019 
	C216.218582,195.848648 217.615128,195.884277 219.085037,196.564041 
	C222.481110,197.901474 226.111725,197.344910 227.381500,194.229370 
	C228.280991,192.022354 226.614609,188.769562 225.704193,185.533646 
	C225.107178,184.747269 224.510147,183.960892 223.873459,182.414337 
	C221.248367,181.609558 218.623260,180.804779 215.996750,179.219009 
	C215.965332,178.438904 215.933914,177.658798 215.911636,176.892883 
	C215.911636,176.892883 215.919022,176.872910 216.609528,177.035278 
	C218.939133,177.886520 221.102097,178.264267 222.648849,174.934937 
	C223.074738,174.857971 223.500641,174.781006 224.245529,175.289978 
	C225.483353,174.510071 226.721176,173.730164 228.000275,172.998718 
	C228.000275,172.998718 227.948135,172.962463 228.377014,172.873123 
	C228.654572,172.750671 228.861328,172.553864 229.435928,172.067169 
	C229.435928,172.067169 229.912140,171.957199 230.390427,171.831070 
	C230.693420,171.666397 230.906311,171.422943 231.125000,170.617310 
	C231.125000,170.617310 231.133591,170.124573 231.031479,169.990845 
	C231.031479,169.990845 231.116058,170.135330 231.741180,170.146652 
	C232.154419,170.093399 232.567657,170.040146 233.426392,169.858719 
	C233.708755,169.705368 233.912659,169.480789 234.080582,169.073196 
M226.760361,44.823509 
	C226.837265,45.215092 226.914169,45.606674 226.450531,46.456356 
	C226.075333,48.126514 225.700119,49.796677 225.216217,51.950729 
	C227.140762,51.566647 228.511597,51.293068 230.064072,51.387737 
	C230.064072,51.387737 230.086105,51.797752 230.117859,52.240265 
	C230.197876,52.537766 230.365433,52.772808 230.840469,53.602562 
	C230.913910,54.058746 230.987335,54.514935 230.537949,55.379677 
	C230.500702,57.935574 231.764175,58.784924 233.561600,56.978107 
	C234.316010,56.219780 233.814590,54.212158 233.860397,51.875187 
	C233.834671,47.941742 233.808945,44.008297 234.354950,39.705627 
	C233.542038,38.155506 232.729111,36.605385 231.973679,34.998581 
	C231.973679,34.998581 231.956039,35.077354 231.826614,34.624577 
	C231.672272,34.334866 231.441803,34.131416 230.936859,33.655731 
	C230.936859,33.655731 230.906433,33.247158 230.816284,32.716022 
	C230.559555,32.479919 230.302826,32.243816 229.991989,32.005390 
	C229.991989,32.005390 230.005264,31.952885 230.004303,31.213381 
	C229.251923,27.134901 226.382095,26.080589 222.339981,26.102598 
	C222.339981,26.102598 221.988037,25.908752 221.685440,25.459646 
	C221.348022,25.349670 221.010620,25.239695 220.316833,25.141581 
	C220.316833,25.141581 220.005051,24.968590 219.893219,24.274351 
	C217.910339,23.898899 215.927460,23.523449 213.014557,23.156857 
	C207.042175,23.122049 201.069794,23.087242 194.315765,22.984341 
	C191.042664,22.834566 187.392899,21.094564 185.033752,25.131891 
	C185.033752,25.131891 185.118469,25.100044 184.683060,25.151810 
	C184.394684,25.254513 184.179199,25.441261 183.450089,25.964663 
	C183.028290,26.002035 182.606476,26.039408 181.761566,26.100266 
	C181.476929,26.169481 181.248337,26.322382 180.422684,26.832651 
	C179.959183,26.913931 179.495667,26.995211 178.634674,26.540154 
	C175.209320,27.880291 170.633545,27.043972 168.678467,32.160511 
	C168.602768,32.331974 168.527084,32.503433 168.183456,32.678680 
	C168.183456,32.678680 167.982880,32.856365 167.475815,32.761497 
	C167.306305,32.732590 167.136810,32.703682 166.429520,32.270958 
	C164.579483,32.748035 162.489227,34.026291 160.923004,33.556717 
	C155.542801,31.943653 155.030640,35.044857 154.164413,38.975182 
	C148.675491,39.680737 145.373535,43.174870 142.824951,48.306221 
	C142.806854,48.485783 142.788773,48.665340 142.874985,48.867290 
	C142.874985,48.867290 142.841187,48.766129 142.218826,48.783539 
	C141.807892,48.841366 141.396973,48.899193 140.596680,48.473389 
	C139.427292,49.710602 138.257889,50.947815 136.827988,52.675819 
	C136.254974,53.130402 135.681961,53.584988 134.618515,54.204643 
	C134.416153,54.475105 134.213776,54.745571 134.000870,55.002972 
	C134.000870,55.002972 134.014557,55.015453 133.243515,55.001091 
	C127.751778,56.013058 123.504799,61.867817 124.929398,66.660713 
	C129.064682,64.788506 133.181351,62.924728 137.363342,61.031380 
	C136.897095,60.000298 136.379150,58.854912 136.090714,57.344799 
	C136.294937,57.122776 136.546112,56.988689 137.338043,56.820019 
	C137.568008,56.579659 137.797989,56.339302 138.030838,56.021835 
	C138.030838,56.021835 138.100235,56.055599 138.845108,56.047817 
	C143.583405,57.832500 145.540833,55.501125 146.789902,51.040585 
	C147.536438,50.394188 148.282990,49.747791 149.371231,48.610828 
	C149.907089,48.366047 150.442947,48.121265 151.367783,48.429470 
	C156.438721,48.055412 160.556213,45.623764 164.548401,42.679272 
	C165.888031,41.691208 168.116135,40.809715 169.533401,41.233402 
	C173.581787,42.443638 174.098801,40.359390 174.021866,37.117340 
	C174.021866,37.117340 173.973755,36.913387 174.721481,37.009960 
	C175.474762,36.990471 176.228027,36.970978 177.444046,37.514294 
	C179.972778,38.341034 182.255600,38.579197 183.743179,34.990623 
	C184.488419,34.952274 185.233658,34.913929 186.413910,35.464645 
	C191.888229,38.850880 196.691406,37.675053 201.787674,33.191719 
	C203.555923,33.250023 205.324173,33.308327 207.718262,33.659363 
	C208.174469,33.701183 208.630692,33.743004 208.974304,34.044086 
	C208.974304,34.044086 208.968094,34.326683 209.305435,34.659695 
	C209.574966,34.857224 209.876099,34.940033 210.963348,34.887627 
	C211.965637,34.961796 212.967926,35.035965 214.069107,35.421597 
	C214.069107,35.421597 214.113297,35.745377 213.972046,36.467922 
	C213.136505,37.343700 212.300980,38.219475 211.465439,39.095253 
	C216.888184,37.552425 220.092194,41.295990 223.763382,43.895149 
	C224.087143,44.124363 224.735428,43.895161 225.726990,44.014484 
	C226.053543,44.104160 226.380081,44.193836 226.917450,44.224838 
	C226.917450,44.224838 226.698654,44.228630 226.760361,44.823509 
M196.991074,232.993698 
	C196.991074,232.993698 196.986938,233.029739 197.100983,233.801758 
	C201.131683,237.748932 208.448013,236.806808 210.999588,231.999176 
	C210.999588,231.999176 211.012314,232.003098 211.756241,232.020706 
	C216.571365,230.120209 219.993210,223.416458 218.864914,216.966431 
	C218.169220,212.989441 218.077133,207.984009 212.014511,208.070969 
	C212.014511,208.070969 211.880264,208.146271 211.887970,207.370316 
	C211.567886,206.810379 211.389282,205.999557 210.906860,205.727554 
	C201.226639,200.269516 188.366318,206.914795 187.038498,218.018280 
	C186.207321,224.968491 189.441147,230.713699 195.538849,232.190399 
	C195.710541,232.312363 195.882233,232.434341 196.298630,232.806564 
	C196.496857,232.948547 196.717941,233.018646 196.991074,232.993698 
M139.797348,58.392963 
	C139.793121,58.786327 139.788879,59.179695 139.784653,59.573059 
	C139.947968,59.574615 140.253220,59.587135 140.254074,59.576141 
	C140.284317,59.184608 140.286057,58.790871 139.797348,58.392963 
M132.185837,52.262497 
	C132.028503,52.376610 131.871170,52.490723 131.713821,52.604828 
	C131.932785,52.581760 132.151749,52.558693 132.185837,52.262497 
M233.516708,61.413052 
	C233.516708,61.413052 233.580917,61.521729 233.516708,61.413052 
z"/>
<path fill="#357139" opacity="1.000000" stroke="none" 
	d="
M104.028114,183.951065 
	C99.744766,170.346359 95.072327,156.849655 91.260384,143.114120 
	C83.701447,115.877037 76.570770,88.520462 69.364647,61.186497 
	C67.147385,52.776096 62.607025,47.092869 53.712887,44.976208 
	C45.962070,43.131638 38.392399,40.515030 30.764503,38.168644 
	C25.717245,36.616077 23.797920,33.608212 24.969124,29.354342 
	C26.047653,25.437067 29.656565,23.990591 34.762413,25.502205 
	C43.533199,28.098848 52.339165,30.589314 61.044460,33.391243 
	C71.545456,36.771145 77.948654,44.299274 81.139427,54.613102 
	C83.251984,61.441689 85.042435,68.373329 86.834671,75.295708 
	C87.434578,77.612770 88.109802,79.057510 91.020615,79.049103 
	C129.009079,78.939354 166.997894,78.954163 204.986633,78.927658 
	C205.311127,78.927429 205.635544,78.790695 206.442886,78.609016 
	C207.868530,70.499229 208.250870,62.375660 204.208160,53.910397 
	C202.016769,51.451759 200.144440,49.577553 198.272110,47.703346 
	C198.272110,47.703342 198.224991,47.724411 198.054626,47.441147 
	C196.655853,46.588154 195.427444,46.018417 194.199020,45.448685 
	C193.005478,45.015888 191.811951,44.583096 190.065430,44.074284 
	C189.344543,44.035229 189.176636,44.072193 189.008713,44.109154 
	C188.268204,44.054996 187.527679,44.000839 186.337402,43.655769 
	C186.221756,42.784946 186.555862,42.205040 187.214081,41.657837 
	C187.738159,41.605858 187.938141,41.521179 188.371826,41.493530 
	C188.605545,41.550564 188.972046,41.238838 188.972046,41.238838 
	C190.372650,41.174393 191.773270,41.109947 194.018951,41.040993 
	C199.575516,41.671463 204.287003,42.306446 208.998505,42.941425 
	C209.769470,43.310726 210.540451,43.680027 211.805878,44.370621 
	C214.544769,46.428562 216.789200,48.165215 219.033600,49.901863 
	C219.168930,50.210728 219.304245,50.519588 219.727966,51.237461 
	C220.597672,52.455246 221.179001,53.264023 221.760315,54.072796 
	C222.045990,54.888409 222.331665,55.704018 222.823090,57.073685 
	C223.269760,57.942024 223.510712,58.256302 223.751648,58.570580 
	C224.084778,60.168991 224.417908,61.767399 224.844650,64.126534 
	C225.166336,66.935555 225.394424,68.983841 225.622528,71.032135 
	C225.528580,72.081879 225.434631,73.131615 225.289062,74.996529 
	C223.314545,84.177444 222.369034,92.923225 219.290878,100.839767 
	C208.812881,127.787506 191.669250,150.412308 171.720322,171.052292 
	C170.640610,172.169418 169.859299,173.574966 168.637909,174.986679 
	C166.876038,176.386795 165.415329,177.646484 163.647705,179.045410 
	C156.514923,184.747162 149.689056,190.309692 142.863190,195.872223 
	C142.863190,195.872208 142.991516,195.983368 142.624634,195.967789 
	C141.592621,196.456161 140.927490,196.960114 140.262360,197.464081 
	C137.016830,199.354935 133.771286,201.245789 129.948151,203.422165 
	C127.477386,204.731384 125.584190,205.755066 123.691002,206.778763 
	C111.255219,212.824524 98.241516,215.800186 84.483681,213.100998 
	C75.687584,211.375275 69.650543,205.781326 66.577171,197.403488 
	C61.857750,184.538498 63.296967,171.688889 67.348366,158.799149 
	C69.899612,170.804016 73.589455,181.897781 86.969589,187.115692 
	C103.918671,191.265289 133.984985,181.164963 139.790405,168.979431 
	C137.507935,170.199982 136.012573,170.976166 134.539169,171.792007 
	C130.340759,174.116669 126.344353,176.958282 121.910347,178.667465 
	C116.129654,180.895752 110.004845,182.231339 104.028114,183.951065 
M144.787048,168.228470 
	C147.289581,166.131821 149.792114,164.035172 152.294647,161.938522 
	C151.866959,161.426239 151.439255,160.913940 151.011566,160.401657 
	C146.830048,163.533890 142.648529,166.666107 138.467010,169.798340 
	C138.824402,170.327438 139.181793,170.856522 139.539185,171.385620 
	C141.105713,170.481537 142.672241,169.577454 144.787048,168.228470 
z"/>
<path fill="#F7A231" opacity="1.000000" stroke="none" 
	d="
M260.980377,82.035881 
	C261.084229,82.360687 261.277374,82.618591 261.906097,83.233734 
	C267.414154,88.965561 267.209320,95.217415 265.307587,101.691292 
	C264.194702,105.479767 262.849854,109.200089 261.609344,112.951065 
	C261.609344,112.951065 261.326538,113.298210 261.054871,113.719559 
	C258.110077,121.399284 255.436935,128.657684 252.763794,135.916061 
	C252.763779,135.916061 252.462051,135.972626 251.974701,136.147766 
	C250.395111,139.616409 249.302872,142.909897 248.210617,146.203384 
	C248.210617,146.203384 248.085403,146.153580 247.827728,146.284271 
	C246.456314,149.721802 245.342560,153.028625 244.228806,156.335464 
	C244.228806,156.335464 244.168320,156.690475 243.725922,156.880066 
	C242.277557,158.790894 241.271561,160.512146 240.265564,162.233398 
	C240.265564,162.233398 240.271179,162.175095 239.961227,162.255066 
	C239.513367,162.680832 239.375458,163.026596 239.237564,163.372375 
	C239.147873,163.640289 238.994995,163.865250 238.288208,164.188385 
	C237.604492,164.677460 237.411484,165.025406 237.218475,165.373337 
	C237.109177,165.634613 236.942108,165.851364 236.193619,166.082581 
	C235.072510,166.720016 234.475082,167.298447 233.530457,167.925140 
	C232.494186,168.694061 231.805130,169.414703 231.116058,170.135345 
	C231.116058,170.135330 231.031479,169.990845 230.727554,170.005234 
	C229.549866,170.615921 228.676102,171.212204 227.415466,171.858887 
	C219.700729,174.720749 212.109818,175.474243 204.308533,175.122269 
	C199.044861,174.884796 193.759506,174.990555 188.488892,175.131470 
	C186.968201,175.172104 185.464966,175.866806 183.636871,176.273102 
	C182.528641,176.467560 181.737305,176.650528 180.554291,176.772598 
	C179.110840,176.771164 178.059052,176.830643 176.775803,176.766388 
	C176.377899,176.588501 176.211456,176.534348 176.108490,176.165466 
	C176.328613,174.812958 176.485260,173.775192 176.679230,172.726501 
	C176.716553,172.715607 176.791870,172.696228 177.052307,172.686981 
	C177.448792,172.383041 177.584854,172.088333 177.749939,171.793579 
	C177.778976,171.793518 177.796783,171.738251 178.074554,171.686234 
	C178.470795,171.296890 178.589264,170.959549 178.771301,170.461029 
	C178.834869,170.299850 179.058792,170.035370 179.371735,169.993042 
	C180.134399,169.316879 180.584091,168.683044 181.153198,167.835846 
	C181.475281,167.356430 181.731018,167.159103 182.368011,167.004456 
	C183.309677,166.207123 183.923096,165.435852 184.575287,164.617920 
	C184.614059,164.571259 184.686554,164.473984 185.051575,164.604156 
	C186.253387,163.451599 187.090164,162.168854 187.967346,160.684540 
	C188.007736,160.482986 188.030548,160.072479 188.302277,159.908890 
	C188.891037,159.196884 189.208084,158.648468 189.683243,158.058258 
	C190.041824,157.880371 190.132614,157.691574 190.392410,157.290604 
	C190.922501,156.790100 191.173935,156.449066 191.699249,155.927261 
	C193.056793,154.301605 194.034744,152.761200 195.240479,151.426590 
	C207.443558,137.919388 217.699493,123.083992 224.310532,106.089470 
	C227.636185,97.540535 229.572784,88.451233 232.367203,78.814201 
	C237.809097,78.814201 243.918686,78.814201 250.028259,78.814201 
	C250.774796,78.894608 251.521317,78.975021 252.906158,79.232483 
	C256.023102,80.284981 258.501740,81.160431 260.980377,82.035881 
z"/>
<path fill="#F5A73E" opacity="1.000000" stroke="none" 
	d="
M164.203979,196.340057 
	C160.623962,196.303223 157.043945,196.266373 152.897827,196.084961 
	C149.992981,194.579041 150.994904,193.863525 152.644943,192.604080 
	C156.920868,189.340454 160.971252,185.781326 165.530792,182.306030 
	C167.636307,182.196640 169.322708,182.121353 171.377136,182.134399 
	C172.498428,182.191132 173.251694,182.159561 174.470261,182.190155 
	C182.369537,182.265106 189.805664,182.170425 197.236954,182.318420 
	C206.131165,182.495483 215.021255,182.879898 223.913132,183.174515 
	C224.510147,183.960892 225.107178,184.747269 225.881729,186.186722 
	C227.134491,192.524384 224.126984,195.040131 219.011688,195.919907 
	C217.615128,195.884277 216.218582,195.848648 213.948792,195.804382 
	C196.785049,195.977173 180.494507,196.158615 164.203979,196.340057 
z"/>
<path fill="#F4F4E4" opacity="1.000000" stroke="none" 
	d="
M179.058792,170.035370 
	C179.058792,170.035370 178.834869,170.299850 178.556076,170.591064 
	C178.117111,171.167603 177.956940,171.452927 177.796783,171.738251 
	C177.796783,171.738251 177.778976,171.793518 177.529205,171.864288 
	C176.991776,172.108597 176.829254,172.362335 176.791870,172.696228 
	C176.791870,172.696228 176.716553,172.715607 176.414795,172.753922 
	C175.761932,172.866104 175.410797,172.939987 174.818970,173.125443 
	C174.395996,173.532761 174.213760,173.828476 173.946136,174.361877 
	C173.433823,175.095779 173.006866,175.592010 172.173065,176.067078 
	C170.823853,175.646011 169.881454,175.246124 168.939072,174.846252 
	C169.859299,173.574966 170.640610,172.169418 171.720322,171.052292 
	C191.669250,150.412308 208.812881,127.787506 219.290878,100.839767 
	C222.369034,92.923225 223.314545,84.177444 225.367065,75.387276 
	C231.797592,75.749382 238.099213,76.530228 244.398926,77.326012 
	C246.213425,77.555222 248.022491,77.827461 249.931152,78.447083 
	C243.918686,78.814201 237.809097,78.814201 232.367203,78.814201 
	C229.572784,88.451233 227.636185,97.540535 224.310532,106.089470 
	C217.699493,123.083992 207.443558,137.919388 195.240479,151.426590 
	C194.034744,152.761200 193.056793,154.301605 191.370026,156.023346 
	C190.549210,156.683502 190.331467,157.066788 190.113739,157.450073 
	C190.132614,157.691574 190.041824,157.880371 189.343811,158.146729 
	C188.574356,158.875488 188.302444,159.473984 188.030548,160.072479 
	C188.030548,160.072479 188.007736,160.482986 187.658173,160.767700 
	C186.434586,162.192932 185.560577,163.333466 184.686554,164.473999 
	C184.686554,164.473984 184.614059,164.571259 184.297699,164.705536 
	C183.334137,165.570023 182.686966,166.300262 182.039795,167.030487 
	C181.731018,167.159103 181.475281,167.356430 180.869064,167.919769 
	C179.996613,168.823135 179.527710,169.429260 179.058792,170.035370 
z"/>
<path fill="#F4A337" opacity="1.000000" stroke="none" 
	d="
M196.053940,232.556305 
	C195.882233,232.434341 195.710541,232.312363 195.101776,231.802155 
	C186.105225,224.566467 187.814240,213.621490 193.710587,208.926224 
	C199.518158,204.301636 205.683060,205.162354 211.880264,208.146271 
	C211.880264,208.146271 212.014511,208.070969 212.081467,208.412933 
	C219.192535,216.902237 218.890579,223.081146 211.012314,232.003098 
	C211.012314,232.003098 210.999588,231.999176 210.618484,232.052277 
	C205.820572,232.413513 201.403748,232.721619 196.986938,233.029724 
	C196.986938,233.029739 196.991074,232.993698 196.883484,232.828964 
	C196.565338,232.426407 196.324692,232.390427 196.053940,232.556305 
z"/>
<path fill="#F4A336" opacity="1.000000" stroke="none" 
	d="
M137.987335,234.212097 
	C137.241135,234.168869 136.494949,234.125656 135.070068,233.943161 
	C121.598511,230.363937 120.301888,216.455093 126.841988,209.890793 
	C131.848175,204.866104 137.793839,205.091156 143.997208,206.994034 
	C144.435669,207.317581 144.874146,207.641129 145.693329,208.257355 
	C146.379471,208.708801 146.684921,208.867584 146.990372,209.026367 
	C147.445435,209.617859 147.900497,210.209335 148.678406,211.314682 
	C149.810669,214.909012 150.620056,217.989487 151.429459,221.069946 
	C151.356323,221.502274 151.283203,221.934586 151.035126,222.982391 
	C148.911499,226.400726 146.962830,229.203568 145.014160,232.006409 
	C144.682724,232.034698 144.405182,232.171936 143.707520,232.653870 
	C142.169617,233.266663 141.105728,233.643753 140.041824,234.020828 
	C139.867325,234.019836 139.692810,234.018829 139.006104,234.032166 
	C138.325058,234.101685 138.156189,234.156891 137.987335,234.212097 
z"/>
<path fill="#F7A131" opacity="1.000000" stroke="none" 
	d="
M214.113297,35.745377 
	C214.113297,35.745377 214.069107,35.421597 213.862396,34.974953 
	C212.132767,34.280476 210.609833,34.032646 209.086899,33.784821 
	C208.630692,33.743004 208.174469,33.701183 207.216309,33.197495 
	C201.783646,32.502014 196.748962,31.536657 191.948364,32.218784 
	C185.857437,33.084259 179.956573,35.287186 173.973755,36.913387 
	C173.973755,36.913387 174.021866,37.117340 173.658539,37.273102 
	C173.056076,37.568565 172.816940,37.708267 172.604218,37.734463 
	C172.630646,37.620953 172.493958,37.438091 172.142914,37.334824 
	C171.194229,37.552452 170.596588,37.873348 169.878418,38.269768 
	C169.757904,38.345295 169.476120,38.306606 169.175018,38.288548 
	C168.581390,38.524986 168.288864,38.779488 167.736664,39.198578 
	C166.707779,39.613712 165.938599,39.864258 164.859833,39.970131 
	C162.401001,40.951302 160.251755,42.077145 158.064011,43.131783 
	C158.025528,43.060581 158.143677,43.171238 157.727264,43.098480 
	C156.343582,42.180309 155.376312,41.334900 154.471909,40.494251 
	C154.534760,40.499016 154.657181,40.529182 154.990540,40.654419 
	C155.890274,40.205048 156.456665,39.630440 157.142578,38.952785 
	C157.262115,38.849743 157.576309,38.819855 157.874603,38.798908 
	C158.437820,38.499439 158.702759,38.220921 158.950195,37.959190 
	C158.932678,37.975983 158.929382,37.927532 159.256607,37.937935 
	C160.015930,37.533169 160.448029,37.118004 161.047943,36.506348 
	C161.693802,36.130997 162.171814,35.952137 163.031937,35.844349 
	C164.533783,35.179928 165.653534,34.444443 166.817535,33.816689 
	C166.861786,33.924419 166.723480,33.736984 167.011139,33.732193 
	C167.526840,33.437057 167.754852,33.146709 167.982880,32.856365 
	C167.982880,32.856365 168.183456,32.678680 168.632202,32.709198 
	C169.375397,32.468128 169.669861,32.196537 169.983032,31.959431 
	C170.001755,31.993912 169.942963,31.942057 170.321808,31.975143 
	C171.797928,31.332777 172.895187,30.657322 174.186493,29.787338 
	C174.901398,29.457783 175.422256,29.322754 176.205872,29.415726 
	C181.285660,28.025679 186.102722,26.407629 191.095657,24.737144 
	C191.271545,24.684708 191.638565,24.678595 192.089554,24.783337 
	C195.977371,24.597132 199.488525,23.715784 202.835648,24.137245 
	C209.963669,25.034784 217.006516,26.608797 224.067017,27.917755 
	C224.049759,27.929932 224.059250,27.908741 224.148544,28.160782 
	C224.550873,28.550690 224.863907,28.688557 225.078156,28.869413 
	C224.979370,28.912403 225.166565,28.803946 225.227722,29.070454 
	C225.611237,29.453318 225.933594,29.569670 226.228043,29.749874 
	C226.200134,29.813728 226.312775,29.731663 226.318848,30.007864 
	C226.639999,30.412117 226.955109,30.540169 227.322968,30.647205 
	C227.375717,30.626190 227.488571,30.613508 227.457962,30.962751 
	C230.546524,35.686123 232.774521,40.226475 232.157181,45.944420 
	C231.870834,48.596470 230.820496,48.396217 228.845886,47.788704 
	C228.408249,47.084232 228.196365,46.557873 227.980927,45.712185 
	C227.551132,45.004776 227.124893,44.616699 226.698669,44.228626 
	C226.698654,44.228630 226.917450,44.224838 226.871216,43.903915 
	C226.187103,43.068001 225.549210,42.553013 224.704041,41.929996 
	C224.237106,41.628216 224.061569,41.375923 223.944412,40.724586 
	C223.212463,40.008511 222.506271,39.632942 221.875198,39.136353 
	C221.950333,39.015335 221.807266,39.255348 221.727280,38.949287 
	C221.081818,38.442997 220.516357,38.242767 219.972351,38.020317 
	C219.993805,37.998093 219.975647,38.057053 219.831573,37.792072 
	C219.133255,37.344471 218.579041,37.161854 218.012405,36.989693 
	C218.000000,37.000153 218.018097,36.973072 217.994278,36.685928 
	C217.320877,36.221931 216.671280,36.045078 215.702866,35.855995 
	C214.960449,35.810974 214.536880,35.778175 214.113297,35.745377 
z"/>
<path fill="#FFFEF7" opacity="1.000000" stroke="none" 
	d="
M164.139862,196.814545 
	C180.494507,196.158615 196.785049,195.977173 213.536926,195.887115 
	C214.370789,198.931030 213.240616,200.087250 210.111282,200.057526 
	C195.982361,199.923325 181.850601,200.065399 167.722824,199.880753 
	C166.496048,199.864700 165.290924,198.192123 164.139862,196.814545 
z"/>
<path fill="#DBECDD" opacity="1.000000" stroke="none" 
	d="
M103.999847,184.371689 
	C110.004845,182.231339 116.129654,180.895752 121.910347,178.667465 
	C126.344353,176.958282 130.340759,174.116669 134.539169,171.792007 
	C136.012573,170.976166 137.507935,170.199982 139.790405,168.979431 
	C133.984985,181.164963 103.918671,191.265289 87.322487,187.140793 
	C91.499580,186.941238 95.983887,187.145828 100.447861,186.930023 
	C101.654068,186.871719 102.798698,185.539703 103.999847,184.371689 
z"/>
<path fill="#F7FEFE" opacity="1.000000" stroke="none" 
	d="
M177.007278,176.890121 
	C178.059052,176.830643 179.110840,176.771164 180.720917,177.048279 
	C182.186035,177.265640 183.092865,177.146408 184.466415,176.979675 
	C195.256256,176.914352 205.579376,176.896530 215.902496,176.878693 
	C215.933914,177.658798 215.965332,178.438904 215.529022,179.612854 
	C201.709473,179.990280 188.357666,179.973862 175.004944,179.639679 
	C175.004196,178.897079 175.004349,178.472244 175.312149,178.008041 
	C176.082291,177.609161 176.544785,177.249649 177.007278,176.890121 
z"/>
<path fill="#F9F1D6" opacity="1.000000" stroke="none" 
	d="
M143.934586,206.620178 
	C137.793839,205.091156 131.848175,204.866104 126.841988,209.890793 
	C120.301888,216.455093 121.598511,230.363937 134.698395,233.992737 
	C133.488953,234.435806 131.673630,235.358521 130.504578,234.835815 
	C122.903229,231.437088 117.382172,217.847336 123.779633,210.661484 
	C124.426620,209.934769 124.143578,208.380066 123.991577,206.994186 
	C125.584190,205.755066 127.477386,204.731384 129.671432,203.673767 
	C134.605515,204.508682 139.238739,205.377502 143.934586,206.620178 
z"/>
<path fill="#F9F4E0" opacity="1.000000" stroke="none" 
	d="
M175.005844,179.957443 
	C188.357666,179.973862 201.709473,179.990280 215.529724,180.003342 
	C218.623260,180.804779 221.248367,181.609558 223.893295,182.794434 
	C215.021255,182.879898 206.131165,182.495483 197.236954,182.318420 
	C189.805664,182.170425 182.369537,182.265106 174.468185,181.836304 
	C173.998917,180.949905 173.997025,180.479538 174.247894,179.997894 
	C174.669052,179.976913 174.837448,179.967178 175.005844,179.957443 
z"/>
<path fill="#ECF1DC" opacity="1.000000" stroke="none" 
	d="
M165.111664,182.340149 
	C160.971252,185.781326 156.920868,189.340454 152.644943,192.604080 
	C150.994904,193.863525 149.992981,194.579041 152.485031,196.180206 
	C149.678192,196.267563 146.718048,196.115097 143.310547,195.917435 
	C149.689056,190.309692 156.514923,184.747162 163.695587,179.406128 
	C164.404144,180.531799 164.757904,181.435974 165.111664,182.340149 
z"/>
<path fill="#FCF5DD" opacity="1.000000" stroke="none" 
	d="
M211.884125,207.758301 
	C205.683060,205.162354 199.518158,204.301636 193.710587,208.926224 
	C187.814240,213.621490 186.105225,224.566467 194.795837,231.723450 
	C189.441147,230.713699 186.207321,224.968491 187.038498,218.018280 
	C188.366318,206.914795 201.226639,200.269516 210.906860,205.727554 
	C211.389282,205.999557 211.567886,206.810379 211.884125,207.758301 
z"/>
<path fill="#FAF8EC" opacity="1.000000" stroke="none" 
	d="
M135.861221,57.709530 
	C136.379150,58.854912 136.897095,60.000298 137.363342,61.031380 
	C133.181351,62.924728 129.064682,64.788506 124.929398,66.660713 
	C123.504799,61.867817 127.751778,56.013058 133.491135,55.312454 
	C133.275833,56.306400 132.812912,56.988983 131.996902,58.192192 
	C133.738373,57.974678 134.799805,57.842102 135.861221,57.709530 
z"/>
<path fill="#EDB767" opacity="1.000000" stroke="none" 
	d="
M215.907074,176.885788 
	C205.579376,176.896530 195.256256,176.914352 184.447647,176.788696 
	C183.962158,176.645218 183.953735,176.261642 183.953735,176.261642 
	C185.464966,175.866806 186.968201,175.172104 188.488892,175.131470 
	C193.759506,174.990555 199.044861,174.884796 204.308533,175.122269 
	C212.109818,175.474243 219.700729,174.720749 227.495056,171.938080 
	C227.961517,171.966888 228.117630,172.128296 228.059448,172.333618 
	C228.001266,172.538956 227.948135,172.962463 227.948135,172.962463 
	C227.948135,172.962463 228.000275,172.998718 227.654663,172.986572 
	C226.181549,173.550964 225.054031,174.127502 223.926529,174.704041 
	C223.500641,174.781006 223.074738,174.857971 221.973511,175.025818 
	C219.505112,175.702103 217.712067,176.287506 215.919022,176.872925 
	C215.919022,176.872910 215.911636,176.892883 215.907074,176.885788 
z"/>
<path fill="#F4F4E4" opacity="1.000000" stroke="none" 
	d="
M261.983246,112.848389 
	C262.849854,109.200089 264.194702,105.479767 265.307587,101.691292 
	C267.209320,95.217415 267.414154,88.965561 262.134186,83.323944 
	C265.945953,83.643127 267.520721,85.844490 268.135437,89.923798 
	C269.426453,98.491119 266.752045,105.767464 261.983246,112.848389 
z"/>
<path fill="#FAF8EC" opacity="1.000000" stroke="none" 
	d="
M172.577805,37.847973 
	C172.816940,37.708267 173.056076,37.568565 173.705933,37.366539 
	C174.098801,40.359390 173.581787,42.443638 169.533401,41.233402 
	C168.116135,40.809715 165.888031,41.691208 164.548401,42.679272 
	C160.556213,45.623764 156.438721,48.055412 151.376007,47.892227 
	C153.637390,45.960403 155.890533,44.565823 158.143677,43.171242 
	C158.143677,43.171238 158.025528,43.060581 158.426544,43.125168 
	C160.941498,42.164768 163.055450,41.139786 165.169403,40.114803 
	C165.938599,39.864258 166.707779,39.613712 168.023468,39.174355 
	C168.872009,38.759228 169.174072,38.532917 169.476120,38.306602 
	C169.476120,38.306606 169.757904,38.345295 170.291382,38.256832 
	C171.369400,38.093277 171.913925,38.018185 172.460144,37.909088 
	C172.461853,37.875084 172.577805,37.847973 172.577805,37.847973 
z"/>
<path fill="#FCF5DD" opacity="1.000000" stroke="none" 
	d="
M211.384277,232.011902 
	C218.890579,223.081146 219.192535,216.902237 212.011185,208.439758 
	C218.077133,207.984009 218.169220,212.989441 218.864914,216.966431 
	C219.993210,223.416458 216.571365,230.120209 211.384277,232.011902 
z"/>
<path fill="#EDAA4E" opacity="1.000000" stroke="none" 
	d="
M157.727264,43.098484 
	C155.890533,44.565823 153.637390,45.960403 151.181519,47.615738 
	C150.442947,48.121265 149.907089,48.366047 148.899582,48.829704 
	C148.026199,49.073822 147.624466,49.099068 146.876007,49.119247 
	C145.730362,49.810368 144.931427,50.506557 144.133240,51.225594 
	C144.133972,51.248444 144.161011,51.286381 143.876404,51.202965 
	C143.341583,50.335075 143.091385,49.550602 142.841187,48.766129 
	C142.841187,48.766129 142.874985,48.867290 143.110077,48.787987 
	C143.520889,48.374836 143.696594,48.040985 144.069641,47.438988 
	C147.647675,44.943726 151.028366,42.716606 154.409058,40.489487 
	C155.376312,41.334900 156.343582,42.180309 157.727264,43.098484 
z"/>
<path fill="#E9B05C" opacity="1.000000" stroke="none" 
	d="
M229.071625,47.966820 
	C230.820496,48.396217 231.870834,48.596470 232.157181,45.944420 
	C232.774521,40.226475 230.546524,35.686123 227.725754,31.058716 
	C228.684525,31.187918 229.344894,31.570400 230.005264,31.952885 
	C230.005264,31.952885 229.991989,32.005390 230.078857,32.262337 
	C230.412628,32.761909 230.659531,33.004536 230.906433,33.247162 
	C230.906433,33.247158 230.936859,33.655731 231.070679,34.077446 
	C231.350372,34.827839 231.600876,35.020569 231.956039,35.077354 
	C231.956039,35.077354 231.973679,34.998581 231.987244,35.367058 
	C232.594955,37.181973 233.189087,38.628410 233.783203,40.074852 
	C233.808945,44.008297 233.834671,47.941742 233.656372,52.576866 
	C232.655136,53.842735 231.857956,54.406925 231.060776,54.971115 
	C230.987335,54.514935 230.913910,54.058746 230.749786,53.046066 
	C230.570648,52.174114 230.379639,51.943508 230.086105,51.797752 
	C230.086105,51.797752 230.064072,51.387737 229.930420,50.885937 
	C229.555038,49.578365 229.313324,48.772594 229.071625,47.966820 
z"/>
<path fill="#F4F4E4" opacity="1.000000" stroke="none" 
	d="
M253.111038,135.807373 
	C255.436935,128.657684 258.110077,121.399284 261.028015,113.941833 
	C261.636688,114.333023 262.338806,114.945267 262.302155,115.509506 
	C262.183044,117.342628 261.793457,119.158173 261.631714,120.190933 
	C258.731628,125.693336 256.094971,130.696014 253.111038,135.807373 
z"/>
<path fill="#E9B05C" opacity="1.000000" stroke="none" 
	d="
M224.084259,27.905577 
	C217.006516,26.608797 209.963669,25.034784 202.835648,24.137245 
	C199.488525,23.715784 195.977371,24.597132 192.354553,24.590483 
	C193.144836,23.879402 194.121124,23.465919 195.097412,23.052437 
	C201.069794,23.087242 207.042175,23.122049 213.737030,23.391165 
	C216.308014,24.073179 218.156525,24.520885 220.005051,24.968590 
	C220.005051,24.968590 220.316833,25.141581 220.657166,25.351851 
	C221.327667,25.677664 221.657852,25.793207 221.988037,25.908752 
	C221.988037,25.908752 222.339981,26.102598 222.702545,26.347347 
	C223.404846,27.029921 223.744553,27.467747 224.084259,27.905577 
z"/>
<path fill="#FAF8EC" opacity="1.000000" stroke="none" 
	d="
M201.026169,33.315025 
	C196.691406,37.675053 191.888229,38.850880 186.502151,34.932411 
	C191.402313,34.038460 196.214249,33.676743 201.026169,33.315025 
z"/>
<path fill="#E9B05C" opacity="1.000000" stroke="none" 
	d="
M201.406921,33.253372 
	C196.214249,33.676743 191.402313,34.038460 186.284637,34.637878 
	C185.233658,34.913929 184.488419,34.952274 183.019409,35.055298 
	C180.524200,35.730476 178.752747,36.340981 176.981308,36.951485 
	C176.228027,36.970978 175.474762,36.990471 174.347626,36.961674 
	C179.956573,35.287186 185.857437,33.084259 191.948364,32.218784 
	C196.748962,31.536657 201.783646,32.502014 206.903397,33.051132 
	C205.324173,33.308327 203.555923,33.250023 201.406921,33.253372 
z"/>
<path fill="#FAF8EC" opacity="1.000000" stroke="none" 
	d="
M157.576309,38.819855 
	C157.576309,38.819855 157.262115,38.849743 156.847137,38.952271 
	C156.047440,39.134884 155.662735,39.214973 155.192047,39.204121 
	C155.106064,39.113178 154.934082,38.931309 154.934082,38.931309 
	C155.030640,35.044857 155.542801,31.943653 160.923004,33.556717 
	C162.489227,34.026291 164.579483,32.748035 166.620178,32.734726 
	C166.781723,33.377995 166.752609,33.557491 166.723480,33.736984 
	C166.723480,33.736984 166.861786,33.924419 166.482071,33.829361 
	C164.951523,34.413960 163.800674,35.093620 162.649841,35.773281 
	C162.171814,35.952137 161.693802,36.130997 160.751434,36.565247 
	C159.834518,37.189606 159.381958,37.558571 158.929382,37.927536 
	C158.929382,37.927532 158.932678,37.975983 158.664276,38.002892 
	C158.122665,38.293152 157.849487,38.556499 157.576309,38.819855 
z"/>
<path fill="#FAF8EC" opacity="1.000000" stroke="none" 
	d="
M214.042664,36.106651 
	C214.536880,35.778175 214.960449,35.810974 215.858673,36.120186 
	C216.894897,36.588760 217.456497,36.780914 218.018097,36.973072 
	C218.018097,36.973072 218.000000,37.000153 218.165771,37.245239 
	C218.879562,37.679234 219.427612,37.868141 219.975647,38.057053 
	C219.975647,38.057053 219.993805,37.998093 220.118317,38.274918 
	C220.764297,38.786274 221.285782,39.020813 221.807266,39.255348 
	C221.807266,39.255348 221.950333,39.015335 221.993744,39.402740 
	C222.681488,40.215122 223.325821,40.640102 223.970154,41.065086 
	C224.061569,41.375923 224.237106,41.628216 224.740021,42.240089 
	C225.066513,43.065098 225.149750,43.471989 225.232986,43.878876 
	C224.735428,43.895161 224.087143,44.124363 223.763382,43.895149 
	C220.092194,41.295990 216.888184,37.552425 211.465439,39.095253 
	C212.300980,38.219475 213.136505,37.343700 214.042664,36.106651 
z"/>
<path fill="#E9B164" opacity="1.000000" stroke="none" 
	d="
M142.529999,48.774834 
	C143.091385,49.550602 143.341583,50.335075 143.678894,51.456596 
	C141.877411,53.214291 139.988831,54.634945 138.100235,56.055595 
	C138.100235,56.055599 138.030838,56.021835 137.774704,56.104347 
	C137.293808,56.438755 137.069046,56.690651 136.844269,56.942543 
	C136.546112,56.988689 136.294937,57.122776 135.975967,57.527164 
	C134.799805,57.842102 133.738373,57.974678 131.996902,58.192192 
	C132.812912,56.988983 133.275833,56.306400 133.876648,55.319633 
	C134.014557,55.015453 134.000870,55.002972 134.252884,54.929401 
	C134.706238,54.583744 134.907593,54.311653 135.108948,54.039566 
	C135.681961,53.584988 136.254974,53.130402 137.274094,52.346146 
	C138.808823,50.996651 139.897430,49.976837 140.986038,48.957020 
	C141.396973,48.899193 141.807892,48.841366 142.529999,48.774834 
z"/>
<path fill="#F9F4E0" opacity="1.000000" stroke="none" 
	d="
M219.048370,196.241974 
	C224.126984,195.040131 227.134491,192.524384 226.076431,186.411682 
	C226.614609,188.769562 228.280991,192.022354 227.381500,194.229370 
	C226.111725,197.344910 222.481110,197.901474 219.048370,196.241974 
z"/>
<path fill="#FAF8EC" opacity="1.000000" stroke="none" 
	d="
M188.971680,40.831245 
	C188.972046,41.238838 188.605545,41.550564 188.245361,41.249123 
	C187.553467,41.173508 187.221725,41.399326 186.889984,41.625141 
	C186.555862,42.205040 186.221756,42.784946 185.962448,43.623272 
	C183.870987,43.881691 181.704712,43.881691 178.668274,43.881691 
	C181.280289,41.542141 182.817688,39.704674 184.762772,38.559921 
	C186.505783,37.534107 188.698120,37.269825 188.971680,40.831245 
z"/>
<path fill="#FCF5DD" opacity="1.000000" stroke="none" 
	d="
M197.043961,233.415741 
	C201.403748,232.721619 205.820572,232.413513 210.619751,232.058548 
	C208.448013,236.806808 201.131683,237.748932 197.043961,233.415741 
z"/>
<path fill="#FAF8EC" opacity="1.000000" stroke="none" 
	d="
M154.471909,40.494251 
	C151.028366,42.716606 147.647675,44.943726 143.839386,47.491161 
	C143.411804,47.811478 142.940796,47.777359 142.940796,47.777359 
	C145.373535,43.174870 148.675491,39.680737 154.549255,38.953247 
	C154.934082,38.931309 155.106064,39.113178 155.079407,39.409012 
	C154.829529,39.935818 154.697678,40.210598 154.657181,40.529182 
	C154.657181,40.529182 154.534760,40.499016 154.471909,40.494251 
z"/>
<path fill="#FAF8EC" opacity="1.000000" stroke="none" 
	d="
M208.922180,42.576538 
	C204.287003,42.306446 199.575516,41.671463 194.429153,40.943737 
	C195.627670,40.236240 197.390671,38.891567 198.868256,39.153996 
	C202.267914,39.757793 205.528717,41.143345 208.922180,42.576538 
z"/>
<path fill="#E9B05C" opacity="1.000000" stroke="none" 
	d="
M190.919769,24.789579 
	C186.102722,26.407629 181.285660,28.025679 176.459381,29.218979 
	C177.310822,28.221649 178.171494,27.649073 179.032166,27.076492 
	C179.495667,26.995211 179.959183,26.913931 180.967651,26.728035 
	C181.823425,26.548031 182.047440,26.365818 182.184677,26.076780 
	C182.606476,26.039408 183.028290,26.002035 183.972824,25.841457 
	C184.834717,25.644814 185.042358,25.438744 185.118469,25.100044 
	C185.118469,25.100044 185.033752,25.131891 185.489899,25.159851 
	C187.603958,25.055069 189.261856,24.922323 190.919769,24.789579 
z"/>
<path fill="#FAF8EC" opacity="1.000000" stroke="none" 
	d="
M138.472672,56.051704 
	C139.988831,54.634945 141.877411,53.214291 143.963501,51.540009 
	C144.161011,51.286381 144.133972,51.248444 144.439209,51.200142 
	C145.148376,51.082775 145.552307,51.013702 145.997421,50.991531 
	C146.038605,51.038437 146.121429,51.131840 146.121429,51.131840 
	C145.540833,55.501125 143.583405,57.832500 138.472672,56.051704 
z"/>
<path fill="#F9F1D6" opacity="1.000000" stroke="none" 
	d="
M151.758102,220.936508 
	C150.620056,217.989487 149.810669,214.909012 148.924072,211.454422 
	C153.871582,213.006744 153.437622,216.752136 151.758102,220.936508 
z"/>
<path fill="#F9F1D6" opacity="1.000000" stroke="none" 
	d="
M145.383789,232.014038 
	C146.962830,229.203568 148.911499,226.400726 151.064880,223.311768 
	C152.565292,227.946304 149.900040,230.438156 145.383789,232.014038 
z"/>
<path fill="#FAF8EC" opacity="1.000000" stroke="none" 
	d="
M178.833420,26.808323 
	C178.171494,27.649073 177.310822,28.221649 176.196640,28.990974 
	C175.422256,29.322754 174.901398,29.457783 173.852783,29.800516 
	C172.197693,30.652832 171.070328,31.297443 169.942963,31.942055 
	C169.942963,31.942057 170.001755,31.993912 169.726410,31.898066 
	C169.281296,31.756035 169.111496,31.709850 168.941711,31.663666 
	C170.633545,27.043972 175.209320,27.880291 178.833420,26.808323 
z"/>
<path fill="#F4F4E4" opacity="1.000000" stroke="none" 
	d="
M260.952820,81.666664 
	C258.501740,81.160431 256.023102,80.284981 253.279419,79.179581 
	C256.381866,77.270721 259.213531,77.397270 260.952820,81.666664 
z"/>
<path fill="#FAF8EC" opacity="1.000000" stroke="none" 
	d="
M219.028259,49.541107 
	C216.789200,48.165215 214.544769,46.428562 212.126343,44.412231 
	C213.133789,44.171650 214.745377,43.740021 215.408691,44.346138 
	C216.867661,45.679329 217.847488,47.536850 219.028259,49.541107 
z"/>
<path fill="#FAF8EC" opacity="1.000000" stroke="none" 
	d="
M191.095657,24.737143 
	C189.261856,24.922323 187.603958,25.055069 185.532440,25.175259 
	C187.392899,21.094564 191.042664,22.834566 194.706589,23.018389 
	C194.121124,23.465919 193.144836,23.879402 191.903564,24.485741 
	C191.638565,24.678595 191.271545,24.684708 191.095657,24.737143 
z"/>
<path fill="#FAF8EC" opacity="1.000000" stroke="none" 
	d="
M224.067017,27.917753 
	C223.744553,27.467747 223.404846,27.029921 222.903061,26.359959 
	C226.382095,26.080589 229.251923,27.134901 230.004791,31.583132 
	C229.344894,31.570400 228.684525,31.187918 227.756363,30.709473 
	C227.488571,30.613508 227.375717,30.626190 227.250992,30.417446 
	C226.931900,29.918772 226.660736,29.759758 226.312775,29.731663 
	C226.312775,29.731663 226.200134,29.813728 226.132172,29.516438 
	C225.764984,29.080744 225.465775,28.942343 225.166565,28.803944 
	C225.166565,28.803946 224.979370,28.912403 224.978241,28.629414 
	C224.671173,28.200529 224.365204,28.054636 224.059250,27.908741 
	C224.059250,27.908741 224.049759,27.929932 224.067017,27.917753 
z"/>
<path fill="#FAF8EC" opacity="1.000000" stroke="none" 
	d="
M228.845886,47.788704 
	C229.313324,48.772594 229.555038,49.578365 229.839600,50.701813 
	C228.511597,51.293068 227.140762,51.566647 225.216217,51.950729 
	C225.700119,49.796677 226.075333,48.126514 226.969238,46.233673 
	C227.487961,46.010994 227.984482,46.031517 227.984482,46.031517 
	C228.196365,46.557873 228.408249,47.084232 228.845886,47.788704 
z"/>
<path fill="#FAF8EC" opacity="1.000000" stroke="none" 
	d="
M198.214157,48.072441 
	C200.144440,49.577553 202.016769,51.451759 203.928085,53.663307 
	C202.030106,52.147614 200.093155,50.294575 198.214157,48.072441 
z"/>
<path fill="#EDB767" opacity="1.000000" stroke="none" 
	d="
M248.429443,146.178558 
	C249.302872,142.909897 250.395111,139.616409 251.830261,136.199707 
	C252.082947,136.793594 251.992722,137.510696 251.620575,138.811554 
	C251.183472,140.228256 251.028275,141.061234 250.873077,141.894196 
	C250.873077,141.894196 250.892044,141.904175 250.638000,142.116699 
	C249.946030,143.561935 249.508118,144.794647 249.070221,146.027359 
	C249.070221,146.027359 248.648270,146.153732 248.429443,146.178558 
z"/>
<path fill="#EDB767" opacity="1.000000" stroke="none" 
	d="
M244.462769,156.277191 
	C245.342560,153.028625 246.456314,149.721802 247.894409,146.274567 
	C248.152390,146.847198 248.086014,147.560257 247.745178,148.841644 
	C247.258499,150.243423 247.046295,151.076889 246.834106,151.910339 
	C246.578873,152.416809 246.323639,152.923279 245.803833,153.885742 
	C245.410019,154.913986 245.280762,155.486237 245.151520,156.058487 
	C245.151520,156.058487 244.696747,156.218933 244.462769,156.277191 
z"/>
<path fill="#FAF8EC" opacity="1.000000" stroke="none" 
	d="
M230.799362,55.175396 
	C231.857956,54.406925 232.655136,53.842735 233.668213,53.025520 
	C233.814590,54.212158 234.316010,56.219780 233.561600,56.978107 
	C231.764175,58.784924 230.500702,57.935574 230.799362,55.175396 
z"/>
<path fill="#FAF8EC" opacity="1.000000" stroke="none" 
	d="
M177.212677,37.232887 
	C178.752747,36.340981 180.524200,35.730476 182.658127,35.152206 
	C182.255600,38.579197 179.972778,38.341034 177.212677,37.232887 
z"/>
<path fill="#FAF8EC" opacity="1.000000" stroke="none" 
	d="
M219.949127,24.621471 
	C218.156525,24.520885 216.308014,24.073179 214.202026,23.386736 
	C215.927460,23.523449 217.910339,23.898899 219.949127,24.621471 
z"/>
<path fill="#F4F4E4" opacity="1.000000" stroke="none" 
	d="
M225.920502,70.902939 
	C225.394424,68.983841 225.166336,66.935555 224.996033,64.447266 
	C225.442047,66.262764 225.830276,68.518250 225.920502,70.902939 
z"/>
<path fill="#EDB767" opacity="1.000000" stroke="none" 
	d="
M240.579117,162.135376 
	C241.271561,160.512146 242.277557,158.790894 243.632690,157.034119 
	C242.952133,158.678177 241.922394,160.357758 240.579117,162.135376 
z"/>
<path fill="#FAF8EC" opacity="1.000000" stroke="none" 
	d="
M140.791351,48.715206 
	C139.897430,49.976837 138.808823,50.996651 137.404358,52.100750 
	C138.257889,50.947815 139.427292,49.710602 140.791351,48.715206 
z"/>
<path fill="#F9F4E0" opacity="1.000000" stroke="none" 
	d="
M216.264282,176.954102 
	C217.712067,176.287506 219.505112,175.702103 221.663406,175.122528 
	C221.102097,178.264267 218.939133,177.886520 216.264282,176.954102 
z"/>
<path fill="#FAF8EC" opacity="1.000000" stroke="none" 
	d="
M234.069092,39.890236 
	C233.189087,38.628410 232.594955,37.181973 231.958511,35.395401 
	C232.729111,36.605385 233.542038,38.155506 234.069092,39.890236 
z"/>
<path fill="#F9F4E0" opacity="1.000000" stroke="none" 
	d="
M224.086029,174.997009 
	C225.054031,174.127502 226.181549,173.550964 227.634033,172.962341 
	C226.721176,173.730164 225.483353,174.510071 224.086029,174.997009 
z"/>
<path fill="#E9B05C" opacity="1.000000" stroke="none" 
	d="
M209.030609,33.914452 
	C210.609833,34.032646 212.132767,34.280476 213.812958,34.819221 
	C212.967926,35.035965 211.965637,34.961796 210.441742,34.692142 
	C209.602783,34.439999 209.285446,34.383343 208.968094,34.326683 
	C208.968094,34.326683 208.974304,34.044086 209.030609,33.914452 
z"/>
<path fill="#F4F4E4" opacity="1.000000" stroke="none" 
	d="
M222.039520,53.909775 
	C221.179001,53.264023 220.597672,52.455246 219.966492,51.343754 
	C220.717331,51.942940 221.518036,52.844845 222.039520,53.909775 
z"/>
<path fill="#FAF8EC" opacity="1.000000" stroke="none" 
	d="
M194.183594,45.861359 
	C195.427444,46.018417 196.655853,46.588154 198.070435,47.439964 
	C196.893784,47.239376 195.530975,46.756706 194.183594,45.861359 
z"/>
<path fill="#F9F4E0" opacity="1.000000" stroke="none" 
	d="
M247.174225,151.901947 
	C247.046295,151.076889 247.258499,150.243423 247.718750,149.200165 
	C247.815994,149.958099 247.665161,150.925842 247.174225,151.901947 
z"/>
<path fill="#F9F4E0" opacity="1.000000" stroke="none" 
	d="
M249.427795,145.953308 
	C249.508118,144.794647 249.946030,143.561935 250.641663,142.126648 
	C250.528046,143.242462 250.156693,144.560867 249.427795,145.953308 
z"/>
<path fill="#F9F4E0" opacity="1.000000" stroke="none" 
	d="
M251.218704,141.889435 
	C251.028275,141.061234 251.183472,140.228256 251.566895,139.170380 
	C251.718185,139.925186 251.641266,140.904922 251.218704,141.889435 
z"/>
<path fill="#EDB767" opacity="1.000000" stroke="none" 
	d="
M231.428619,170.140991 
	C231.805130,169.414703 232.494186,168.694061 233.615875,168.011795 
	C234.048492,168.050171 234.219055,168.223740 234.183380,168.427048 
	C234.147720,168.630356 234.195587,169.040390 234.195587,169.040390 
	C234.195587,169.040390 234.080582,169.073196 233.825958,169.172760 
	C233.263870,169.419022 233.067062,169.657211 232.980896,169.986893 
	C232.567657,170.040146 232.154419,170.093399 231.428619,170.140991 
z"/>
<path fill="#FAF8EC" opacity="1.000000" stroke="none" 
	d="
M147.222733,49.124313 
	C147.624466,49.099068 148.026199,49.073822 148.728729,49.074989 
	C148.282990,49.747791 147.536438,50.394188 146.455658,51.086212 
	C146.121429,51.131840 146.038605,51.038437 146.133331,50.748222 
	C146.559616,50.013439 146.891174,49.568878 147.222733,49.124313 
z"/>
<path fill="#EDB767" opacity="1.000000" stroke="none" 
	d="
M227.881927,171.887695 
	C228.676102,171.212204 229.549866,170.615921 230.778610,170.072098 
	C231.133591,170.124573 231.125000,170.617310 230.827698,170.904114 
	C230.324295,171.446335 230.118210,171.701767 229.912140,171.957199 
	C229.912140,171.957199 229.435928,172.067169 229.001221,172.110321 
	C228.566528,172.153488 228.117630,172.128296 228.117630,172.128296 
	C228.117630,172.128296 227.961517,171.966888 227.881927,171.887695 
z"/>
<path fill="#ECF1DC" opacity="1.000000" stroke="none" 
	d="
M140.639343,197.590515 
	C140.927490,196.960114 141.592621,196.456161 142.570770,195.902161 
	C142.261307,196.473740 141.638809,197.095352 140.639343,197.590515 
z"/>
<path fill="#EDB767" opacity="1.000000" stroke="none" 
	d="
M233.963074,167.963516 
	C234.475082,167.298447 235.072510,166.720016 236.013000,166.183807 
	C236.048584,166.756927 235.741104,167.287811 235.024750,168.003998 
	C234.615875,168.189270 234.219055,168.223740 234.219055,168.223740 
	C234.219055,168.223740 234.048492,168.050171 233.963074,167.963516 
z"/>
<path fill="#F9F1D6" opacity="1.000000" stroke="none" 
	d="
M140.412094,234.048248 
	C141.105728,233.643753 142.169617,233.266663 143.583466,232.855438 
	C142.883057,233.239410 141.832718,233.657532 140.412094,234.048248 
z"/>
<path fill="#FAF8EC" opacity="1.000000" stroke="none" 
	d="
M140.044571,58.395203 
	C140.286057,58.790871 140.284317,59.184608 140.254074,59.576141 
	C140.253220,59.587135 139.947968,59.574615 139.784653,59.573059 
	C139.788879,59.179695 139.793121,58.786327 140.044571,58.395203 
z"/>
<path fill="#F9F4E0" opacity="1.000000" stroke="none" 
	d="
M245.429230,156.010376 
	C245.280762,155.486237 245.410019,154.913986 245.791779,154.176575 
	C245.931839,154.661697 245.819397,155.311981 245.429230,156.010376 
z"/>
<path fill="#E9B05C" opacity="1.000000" stroke="none" 
	d="
M225.479980,43.946678 
	C225.149750,43.471989 225.066513,43.065098 224.947296,42.348114 
	C225.549210,42.553013 226.187103,43.068001 226.765808,43.933250 
	C226.380081,44.193836 226.053543,44.104160 225.479980,43.946678 
z"/>
<path fill="#E9B05C" opacity="1.000000" stroke="none" 
	d="
M227.980927,45.712189 
	C227.984482,46.031517 227.487961,46.010994 227.239532,46.004623 
	C226.914169,45.606674 226.837265,45.215092 226.729523,44.526066 
	C227.124893,44.616699 227.551132,45.004776 227.980927,45.712189 
z"/>
<path fill="#FAF8EC" opacity="1.000000" stroke="none" 
	d="
M132.278275,52.399063 
	C132.151749,52.558693 131.932785,52.581760 131.713821,52.604828 
	C131.871170,52.490723 132.028503,52.376610 132.278275,52.399063 
z"/>
<path fill="#E9B05C" opacity="1.000000" stroke="none" 
	d="
M167.011139,33.732193 
	C166.752609,33.557491 166.781723,33.377995 166.889069,32.936638 
	C167.136810,32.703682 167.306305,32.732590 167.729340,32.808929 
	C167.754852,33.146709 167.526840,33.437057 167.011139,33.732193 
z"/>
<path fill="#F9F1D6" opacity="1.000000" stroke="none" 
	d="
M138.089417,234.357620 
	C138.156189,234.156891 138.325058,234.101685 138.754288,234.103638 
	C138.740250,234.274918 138.465881,234.389038 138.089417,234.357620 
z"/>
<path fill="#FAF8EC" opacity="1.000000" stroke="none" 
	d="
M209.136765,34.493191 
	C209.285446,34.383343 209.602783,34.439999 210.064484,34.702393 
	C209.876099,34.940033 209.574966,34.857224 209.136765,34.493191 
z"/>
<path fill="#FCF5DD" opacity="1.000000" stroke="none" 
	d="
M196.176285,232.681427 
	C196.324692,232.390427 196.565338,232.426407 196.868866,232.840546 
	C196.717941,233.018646 196.496857,232.948547 196.176285,232.681427 
z"/>
<path fill="#FAF8EC" opacity="1.000000" stroke="none" 
	d="
M184.900757,25.125927 
	C185.042358,25.438744 184.834717,25.644814 184.266068,25.715155 
	C184.179199,25.441261 184.394684,25.254513 184.900757,25.125927 
z"/>
<path fill="#FAF8EC" opacity="1.000000" stroke="none" 
	d="
M221.836731,25.684200 
	C221.657852,25.793207 221.327667,25.677664 220.835342,25.345921 
	C221.010620,25.239695 221.348022,25.349670 221.836731,25.684200 
z"/>
<path fill="#FAF8EC" opacity="1.000000" stroke="none" 
	d="
M230.861359,32.981590 
	C230.659531,33.004536 230.412628,32.761909 230.105927,32.263496 
	C230.302826,32.243816 230.559555,32.479919 230.861359,32.981590 
z"/>
<path fill="#FAF8EC" opacity="1.000000" stroke="none" 
	d="
M181.973114,26.088522 
	C182.047440,26.365818 181.823425,26.548031 181.294220,26.591194 
	C181.248337,26.322382 181.476929,26.169481 181.973114,26.088522 
z"/>
<path fill="#F9F1D6" opacity="1.000000" stroke="none" 
	d="
M146.888824,208.779785 
	C146.684921,208.867584 146.379471,208.708801 145.969635,208.305405 
	C146.172577,208.218277 146.479919,208.375748 146.888824,208.779785 
z"/>
<path fill="#E9B05C" opacity="1.000000" stroke="none" 
	d="
M168.810089,31.912088 
	C169.111496,31.709850 169.281296,31.756035 169.707703,31.863583 
	C169.669861,32.196537 169.375397,32.468128 168.766174,32.707306 
	C168.527084,32.503433 168.602768,32.331974 168.810089,31.912088 
z"/>
<path fill="#FAF8EC" opacity="1.000000" stroke="none" 
	d="
M189.088257,44.263206 
	C189.176636,44.072193 189.344543,44.035229 189.747711,44.103867 
	C189.711258,44.278736 189.439529,44.348000 189.088257,44.263206 
z"/>
<path fill="#E9B164" opacity="1.000000" stroke="none" 
	d="
M142.882874,48.041790 
	C142.940796,47.777359 143.411804,47.811478 143.642059,47.759308 
	C143.696594,48.040985 143.520889,48.374836 143.057953,48.776794 
	C142.788773,48.665340 142.806854,48.485783 142.882874,48.041790 
z"/>
<path fill="#FAF8EC" opacity="1.000000" stroke="none" 
	d="
M230.101990,52.019009 
	C230.379639,51.943508 230.570648,52.174114 230.639832,52.717484 
	C230.365433,52.772808 230.197876,52.537766 230.101990,52.019009 
z"/>
<path fill="#FAF8EC" opacity="1.000000" stroke="none" 
	d="
M134.863739,54.122105 
	C134.907593,54.311653 134.706238,54.583744 134.258148,54.935932 
	C134.213776,54.745571 134.416153,54.475105 134.863739,54.122105 
z"/>
<path fill="#FAF8EC" opacity="1.000000" stroke="none" 
	d="
M137.091156,56.881283 
	C137.069046,56.690651 137.293808,56.438755 137.773254,56.142906 
	C137.797989,56.339302 137.568008,56.579659 137.091156,56.881283 
z"/>
<path fill="#F4F4E4" opacity="1.000000" stroke="none" 
	d="
M223.767212,58.262161 
	C223.510712,58.256302 223.269760,57.942024 223.036194,57.321320 
	C223.289978,57.327839 223.536377,57.640793 223.767212,58.262161 
z"/>
<path fill="#FAF8EC" opacity="1.000000" stroke="none" 
	d="
M233.548813,61.467392 
	C233.580917,61.521729 233.516708,61.413052 233.548813,61.467392 
z"/>
<path fill="#FAF8EC" opacity="1.000000" stroke="none" 
	d="
M231.891327,34.850967 
	C231.600876,35.020569 231.350372,34.827839 231.169861,34.256695 
	C231.441803,34.131416 231.672272,34.334866 231.891327,34.850967 
z"/>
<path fill="#EDB767" opacity="1.000000" stroke="none" 
	d="
M239.478790,163.252716 
	C239.375458,163.026596 239.513367,162.680832 239.939789,162.274933 
	C240.058868,162.520889 239.889435,162.826965 239.478790,163.252716 
z"/>
<path fill="#EDB767" opacity="1.000000" stroke="none" 
	d="
M237.481750,165.263550 
	C237.411484,165.025406 237.604492,164.677460 238.111877,164.294846 
	C238.199158,164.558029 237.972092,164.855881 237.481750,165.263550 
z"/>
<path fill="#F9F4E0" opacity="1.000000" stroke="none" 
	d="
M234.183380,168.427048 
	C234.219055,168.223740 234.615875,168.189270 234.811020,168.229370 
	C234.906509,168.513184 234.749222,168.711105 234.364960,168.951813 
	C234.195587,169.040390 234.147720,168.630356 234.183380,168.427048 
z"/>
<path fill="#F9F4E0" opacity="1.000000" stroke="none" 
	d="
M233.203644,169.922806 
	C233.067062,169.657211 233.263870,169.419022 233.804733,169.228653 
	C233.912659,169.480789 233.708755,169.705368 233.203644,169.922806 
z"/>
<path fill="#F9F4E0" opacity="1.000000" stroke="none" 
	d="
M230.151276,171.894135 
	C230.118210,171.701767 230.324295,171.446335 230.779739,171.145813 
	C230.906311,171.422943 230.693420,171.666397 230.151276,171.894135 
z"/>
<path fill="#F9F4E0" opacity="1.000000" stroke="none" 
	d="
M228.059448,172.333618 
	C228.117630,172.128296 228.566528,172.153488 228.781891,172.218094 
	C228.861328,172.553864 228.654572,172.750671 228.162567,172.917786 
	C227.948135,172.962463 228.001266,172.538956 228.059448,172.333618 
z"/>
<path fill="#F8FBFB" opacity="1.000000" stroke="none" 
	d="
M165.530792,182.306030 
	C164.757904,181.435974 164.404144,180.531799 164.002502,179.266907 
	C165.415329,177.646484 166.876038,176.386795 168.637909,174.986679 
	C169.881454,175.246124 170.823853,175.646011 172.259018,176.264130 
	C173.167877,176.641525 173.583939,176.800674 174.102325,177.194153 
	C174.471252,177.634796 174.737869,177.841095 175.004501,178.047394 
	C175.004349,178.472244 175.004196,178.897079 175.004944,179.639679 
	C174.837448,179.967178 174.669052,179.976913 173.892090,180.001587 
	C172.525375,180.693039 171.767242,181.369553 171.009109,182.046082 
	C169.322708,182.121353 167.636307,182.196640 165.530792,182.306030 
z"/>
<path fill="#CFE7D1" opacity="1.000000" stroke="none" 
	d="
M144.512909,168.450928 
	C142.672241,169.577454 141.105713,170.481537 139.539185,171.385620 
	C139.181793,170.856522 138.824402,170.327438 138.467010,169.798340 
	C142.648529,166.666107 146.830048,163.533890 151.011566,160.401657 
	C151.439255,160.913940 151.866959,161.426239 152.294647,161.938522 
	C149.792114,164.035172 147.289581,166.131821 144.512909,168.450928 
z"/>
<path fill="#FEFEFE" opacity="1.000000" stroke="none" 
	d="
M187.214081,41.657845 
	C187.221725,41.399326 187.553467,41.173508 188.011658,41.192093 
	C187.938141,41.521179 187.738159,41.605858 187.214081,41.657845 
z"/>
<path fill="#EDB767" opacity="1.000000" stroke="none" 
	d="
M174.000015,176.959824 
	C173.583939,176.800674 173.167877,176.641525 172.665863,176.285309 
	C173.006866,175.592010 173.433823,175.095779 174.172516,174.231873 
	C174.676056,173.580734 174.867874,173.297302 175.059677,173.013855 
	C175.410797,172.939987 175.761932,172.866104 176.377472,172.764832 
	C176.485260,173.775192 176.328613,174.812958 175.781311,176.294861 
	C174.927109,176.812607 174.463562,176.886215 174.000015,176.959824 
z"/>
<path fill="#EDB767" opacity="1.000000" stroke="none" 
	d="
M185.051590,164.604172 
	C185.560577,163.333466 186.434586,162.192932 187.617783,160.969254 
	C187.090164,162.168854 186.253387,163.451599 185.051590,164.604172 
z"/>
<path fill="#F9F4E0" opacity="1.000000" stroke="none" 
	d="
M183.636871,176.273102 
	C183.953735,176.261642 183.962158,176.645218 183.980927,176.836197 
	C183.092865,177.146408 182.186035,177.265640 181.112579,177.109192 
	C181.737305,176.650528 182.528641,176.467560 183.636871,176.273102 
z"/>
<path fill="#EDB767" opacity="1.000000" stroke="none" 
	d="
M182.368027,167.004456 
	C182.686966,166.300262 183.334137,165.570023 184.258911,164.752197 
	C183.923096,165.435852 183.309677,166.207123 182.368027,167.004456 
z"/>
<path fill="#EDB767" opacity="1.000000" stroke="none" 
	d="
M179.371735,169.993042 
	C179.527710,169.429260 179.996613,168.823135 180.749664,168.133118 
	C180.584091,168.683044 180.134399,169.316879 179.371735,169.993042 
z"/>
<path fill="#F9F4E0" opacity="1.000000" stroke="none" 
	d="
M174.102325,177.194153 
	C174.463562,176.886215 174.927109,176.812607 175.717834,176.609604 
	C176.211456,176.534348 176.377899,176.588501 176.775803,176.766388 
	C176.544785,177.249649 176.082291,177.609161 175.312149,178.008041 
	C174.737869,177.841095 174.471252,177.634796 174.102325,177.194153 
z"/>
<path fill="#F9F4E0" opacity="1.000000" stroke="none" 
	d="
M188.302277,159.908890 
	C188.302444,159.473984 188.574356,158.875488 189.185699,158.188538 
	C189.208084,158.648468 188.891037,159.196884 188.302277,159.908890 
z"/>
<path fill="#F9F4E0" opacity="1.000000" stroke="none" 
	d="
M190.392410,157.290604 
	C190.331467,157.066788 190.549210,156.683502 191.096161,156.204132 
	C191.173935,156.449066 190.922501,156.790100 190.392410,157.290604 
z"/>
<path fill="#EDB767" opacity="1.000000" stroke="none" 
	d="
M178.074554,171.686234 
	C177.956940,171.452927 178.117111,171.167603 178.492508,170.752258 
	C178.589264,170.959549 178.470795,171.296890 178.074554,171.686234 
z"/>
<path fill="#EDB767" opacity="1.000000" stroke="none" 
	d="
M177.052307,172.686981 
	C176.829254,172.362335 176.991776,172.108597 177.500183,171.864349 
	C177.584854,172.088333 177.448792,172.383041 177.052307,172.686981 
z"/>
<path fill="#F4F4E4" opacity="1.000000" stroke="none" 
	d="
M171.377136,182.134399 
	C171.767242,181.369553 172.525375,180.693039 173.639313,180.012848 
	C173.997025,180.479538 173.998917,180.949905 174.002884,181.774139 
	C173.251694,182.159561 172.498428,182.191132 171.377136,182.134399 
z"/>
<path fill="#F9F4E0" opacity="1.000000" stroke="none" 
	d="
M174.818970,173.125443 
	C174.867874,173.297302 174.676056,173.580734 174.257874,173.994202 
	C174.213760,173.828476 174.395996,173.532761 174.818970,173.125443 
z"/>
<path fill="#EDAA4E" opacity="1.000000" stroke="none" 
	d="
M164.859833,39.970131 
	C163.055450,41.139786 160.941498,42.164768 158.465027,43.196369 
	C160.251755,42.077145 162.401001,40.951302 164.859833,39.970131 
z"/>
<path fill="#E9B05C" opacity="1.000000" stroke="none" 
	d="
M170.321808,31.975143 
	C171.070328,31.297443 172.197693,30.652832 173.658752,29.995045 
	C172.895187,30.657322 171.797928,31.332777 170.321808,31.975143 
z"/>
<path fill="#E9B05C" opacity="1.000000" stroke="none" 
	d="
M163.031937,35.844349 
	C163.800674,35.093620 164.951523,34.413960 166.437820,33.721626 
	C165.653534,34.444443 164.533783,35.179928 163.031937,35.844349 
z"/>
<path fill="#EDAA4E" opacity="1.000000" stroke="none" 
	d="
M154.990540,40.654419 
	C154.697678,40.210598 154.829529,39.935818 155.165375,39.499954 
	C155.662735,39.214973 156.047440,39.134884 156.727600,39.055313 
	C156.456665,39.630440 155.890274,40.205048 154.990540,40.654419 
z"/>
<path fill="#E9B05C" opacity="1.000000" stroke="none" 
	d="
M217.994278,36.685928 
	C217.456497,36.780914 216.894897,36.588760 216.177490,36.132412 
	C216.671280,36.045078 217.320877,36.221931 217.994278,36.685928 
z"/>
<path fill="#E9B05C" opacity="1.000000" stroke="none" 
	d="
M223.944412,40.724583 
	C223.325821,40.640102 222.681488,40.215122 221.918610,39.523758 
	C222.506271,39.632942 223.212463,40.008511 223.944412,40.724583 
z"/>
<path fill="#E9B05C" opacity="1.000000" stroke="none" 
	d="
M159.256607,37.937935 
	C159.381958,37.558571 159.834518,37.189606 160.583588,36.761738 
	C160.448029,37.118004 160.015930,37.533169 159.256607,37.937935 
z"/>
<path fill="#E9B05C" opacity="1.000000" stroke="none" 
	d="
M172.458450,37.943089 
	C171.913925,38.018185 171.369400,38.093277 170.411896,38.181305 
	C170.596588,37.873348 171.194229,37.552452 172.123032,37.459686 
	C172.454178,37.687817 172.458450,37.943089 172.458450,37.943089 
z"/>
<path fill="#E9B05C" opacity="1.000000" stroke="none" 
	d="
M219.831573,37.792068 
	C219.427612,37.868141 218.879562,37.679234 218.178162,37.234779 
	C218.579041,37.161854 219.133255,37.344471 219.831573,37.792068 
z"/>
<path fill="#E9B05C" opacity="1.000000" stroke="none" 
	d="
M221.727280,38.949287 
	C221.285782,39.020813 220.764297,38.786274 220.096848,38.297142 
	C220.516357,38.242767 221.081818,38.442997 221.727280,38.949287 
z"/>
<path fill="#E9B05C" opacity="1.000000" stroke="none" 
	d="
M224.148544,28.160782 
	C224.365204,28.054636 224.671173,28.200529 225.077026,28.586422 
	C224.863907,28.688557 224.550873,28.550690 224.148544,28.160782 
z"/>
<path fill="#E9B05C" opacity="1.000000" stroke="none" 
	d="
M225.227722,29.070454 
	C225.465775,28.942343 225.764984,29.080744 226.160065,29.452583 
	C225.933594,29.569670 225.611237,29.453318 225.227722,29.070454 
z"/>
<path fill="#E9B05C" opacity="1.000000" stroke="none" 
	d="
M226.318848,30.007864 
	C226.660736,29.759758 226.931900,29.918772 227.198242,30.438461 
	C226.955109,30.540169 226.639999,30.412117 226.318848,30.007864 
z"/>
<path fill="#E9B05C" opacity="1.000000" stroke="none" 
	d="
M169.175018,38.288544 
	C169.174072,38.532917 168.872009,38.759228 168.283157,39.009766 
	C168.288864,38.779488 168.581390,38.524986 169.175018,38.288544 
z"/>
<path fill="#EDAA4E" opacity="1.000000" stroke="none" 
	d="
M157.874603,38.798904 
	C157.849487,38.556499 158.122665,38.293152 158.681778,37.986099 
	C158.702759,38.220921 158.437820,38.499439 157.874603,38.798904 
z"/>
<path fill="#FEFEFE" opacity="1.000000" stroke="none" 
	d="
M172.460144,37.909088 
	C172.458450,37.943089 172.454178,37.687817 172.474060,37.562954 
	C172.493958,37.438091 172.630646,37.620953 172.604218,37.734463 
	C172.577805,37.847973 172.461853,37.875084 172.460144,37.909088 
z"/>
<path fill="#E9B164" opacity="1.000000" stroke="none" 
	d="
M146.876007,49.119247 
	C146.891174,49.568878 146.559616,50.013439 146.092148,50.701317 
	C145.552307,51.013702 145.148376,51.082775 144.438477,51.177292 
	C144.931427,50.506557 145.730362,49.810368 146.876007,49.119247 
z"/>
</svg>